# xmcd
#
# Track frame offsets: 
#        183
#        15690
#        32605
#        47673
#        66263
#        82633
#        100008
#        117015
#        134440
#        156663
#        173830
#        189580
#        207500
#        222960
#        240835
#        255458
#        268455
#        285065
#        303720
#        320455
#
# Disc length: 4540 seconds
#
# Revision: 1
# Processed by: cddbd v1.5.2PL0 Copyright (c) Steve Scherf et al.
# Submitted via: ExactAudioCopy v0.95b4
#
DISCID=1511ba14
DTITLE=Various Artist - Top Hits 96 Volume 2
DYEAR=1996
DGENRE=90's
TTITLE0=2 Fabiola - Lift U Up
TTITLE1=Boris - Soirée Disco
TTITLE2=Coolio - 1, 2, 3, 4 (Jumpin' New)
TTITLE3=Zhi Vago - Celebrate The Love
TTITLE4=Get Ready - Deep So Deep
TTITLE5=Robert Miles - Children
TTITLE6=Third World - Papa Was A Rolling Stone ('96)
TTITLE7=Good Shape - Never Gonna Give Up (Happy Dance Mix)
TTITLE8=T-Spoon - Rockstar (Dark Mix)
TTITLE9=Paradisio - Bailando
TTITLE10=2 Brothers On The 4th Floor - Fairytales (Radio Version)
TTITLE11=Whigfield - Sexy Eyes
TTITLE12=Tony Di Bart - Turn Your Love Around
TTITLE13=Tokyo Ghetto Pussy - To Another Galaxy
TTITLE14=Right Said Fred - Everybody Loves Me
TTITLE15=Enzo - Wild and Young
TTITLE16=Dj Paul Elstak - Promised Land
TTITLE17=Gat Decor - Passion
TTITLE18=Neuronic - Heaven
TTITLE19=Daddy K - Et C'est Comme Ca
EXTD=
EXTT0=
EXTT1=
EXTT2=
EXTT3=
EXTT4=
EXTT5=
EXTT6=
EXTT7=
EXTT8=
EXTT9=
EXTT10=
EXTT11=
EXTT12=
EXTT13=
EXTT14=
EXTT15=
EXTT16=
EXTT17=
EXTT18=
EXTT19=
PLAYORDER=
